<svg version="1.1" xmlns="http://www.w3.org/2000/svg" viewBox="0 0 1556.998934426705 1619.5531326685204" width="1556.998934426705" height="1619.5531326685204" filter="invert(93%) hue-rotate(180deg)">
  <!-- svg-source:excalidraw -->
  
  <defs>
    <style class="style-fonts">
      @font-face {
        font-family: "Virgil";
        src: url("https://excalidraw.com/Virgil.woff2");
      }
      @font-face {
        font-family: "Cascadia";
        src: url("https://excalidraw.com/Cascadia.woff2");
      }
    </style>
    
  </defs>
  <rect x="0" y="0" width="1556.998934426705" height="1619.5531326685204" fill="#ffffff"></rect><g stroke-linecap="round" transform="translate(549.7006217096932 592.6771696693886) rotate(0 169.0909423828125 169.0909423828125)"><path d="M154.64 1.36 C170.02 -2.61, 188.51 1.48, 204.91 4.87 C221.32 8.26, 238.36 13.53, 253.06 21.7 C267.76 29.86, 281.69 41.58, 293.1 53.87 C304.51 66.17, 314.43 80.65, 321.51 95.48 C328.59 110.31, 333.22 126.61, 335.56 142.85 C337.9 159.1, 337.66 176.47, 335.54 192.94 C333.42 209.41, 329.77 226.76, 322.86 241.66 C315.94 256.56, 305.41 270.27, 294.05 282.32 C282.69 294.37, 269.17 305.39, 254.68 313.96 C240.2 322.53, 223.2 329.88, 207.13 333.74 C191.05 337.61, 174.59 338.41, 158.22 337.15 C141.86 335.88, 124.65 332.13, 108.95 326.14 C93.24 320.15, 77.25 311.35, 63.99 301.21 C50.73 291.07, 38.69 278.91, 29.38 265.29 C20.06 251.68, 13.02 235.25, 8.12 219.54 C3.21 203.84, 0.11 187.56, -0.06 171.06 C-0.22 154.57, 2.38 136.75, 7.12 120.56 C11.86 104.37, 19.07 87.71, 28.39 73.93 C37.71 60.15, 49.93 48.27, 63.05 37.87 C76.16 27.47, 91.17 17.84, 107.06 11.52 C122.95 5.2, 149.2 1.43, 158.39 -0.04 C167.57 -1.52, 162.15 -0.09, 162.18 2.67 M141.42 3.45 C156.32 -1.95, 175.81 -1.77, 192.52 0.54 C209.24 2.85, 226.52 9.83, 241.73 17.31 C256.93 24.8, 271.42 34.31, 283.74 45.46 C296.06 56.6, 307.24 69.85, 315.65 84.17 C324.05 98.49, 330.28 115.24, 334.18 131.39 C338.08 147.55, 340.23 164.71, 339.03 181.09 C337.83 197.47, 333.33 214.3, 326.96 229.67 C320.6 245.04, 310.91 260.19, 300.85 273.32 C290.79 286.44, 279.92 299.16, 266.6 308.43 C253.29 317.7, 237.19 323.91, 220.95 328.94 C204.71 333.97, 185.71 338.4, 169.18 338.61 C152.64 338.82, 137.28 335.04, 121.74 330.18 C106.19 325.32, 90.13 318.78, 75.89 309.46 C61.64 300.13, 46.99 287.12, 36.27 274.23 C25.56 261.34, 17.76 247.44, 11.59 232.12 C5.42 216.8, 0.65 198.8, -0.74 182.32 C-2.13 165.84, -0.53 149.1, 3.27 133.23 C7.06 117.35, 13.5 101.68, 22.03 87.06 C30.56 72.44, 42.44 56.96, 54.45 45.49 C66.45 34.01, 79.58 25.51, 94.04 18.22 C108.51 10.93, 132.78 3.64, 141.21 1.73 C149.65 -0.19, 143.84 4, 144.66 6.71" stroke="#000000" stroke-width="1" fill="none"></path></g><g transform="translate(672.7166295768639 718.037505818802) rotate(0 46.00958251953125 43.66525423728808)"><text x="46.00958251953125" y="0" font-family="Virgil, Segoe UI Emoji" font-size="34.932203389830505px" fill="#000000" text-anchor="middle" style="white-space: pre;" direction="ltr" dominant-baseline="text-before-edge">Nginx:</text><text x="46.00958251953125" y="43.66525423728813" font-family="Virgil, Segoe UI Emoji" font-size="34.932203389830505px" fill="#000000" text-anchor="middle" style="white-space: pre;" direction="ltr" dominant-baseline="text-before-edge">80</text></g><g stroke-linecap="round" transform="translate(1152.4537548477138 582.8865745087987) rotate(0 173.9192165798613 167.2300159421743)"><path d="M153.7 1.5 C169.46 -2.98, 189.18 -0.88, 205.98 1.94 C222.77 4.77, 239.49 10.58, 254.49 18.45 C269.49 26.32, 283.9 37.42, 295.98 49.14 C308.07 60.87, 318.96 74.48, 327 88.8 C335.05 103.12, 340.95 119.07, 344.26 135.06 C347.57 151.06, 348.49 168.56, 346.85 184.76 C345.22 200.97, 341.04 217.09, 334.43 232.3 C327.82 247.5, 318.3 263.29, 307.18 276 C296.07 288.72, 282.45 299.68, 267.75 308.57 C253.06 317.46, 235.68 325.01, 219.01 329.34 C202.35 333.68, 184.54 335.21, 167.77 334.6 C150.99 333.99, 134.27 330.94, 118.36 325.69 C102.45 320.45, 86.39 313, 72.29 303.12 C58.2 293.24, 44.26 279.61, 33.79 266.44 C23.32 253.26, 15.1 239.3, 9.48 224.08 C3.85 208.85, 0.61 191.63, 0.04 175.07 C-0.52 158.51, 1.76 140.87, 6.09 124.72 C10.42 108.57, 17.02 91.95, 26.02 78.17 C35.03 64.4, 47.34 52.74, 60.11 42.07 C72.88 31.4, 85.3 21.15, 102.65 14.17 C120 7.19, 152.28 2.13, 164.21 0.18 C176.13 -1.77, 174.18 -0.24, 174.22 2.45 M207.25 2.26 C223.52 2.82, 241.14 12.03, 256.39 19.9 C271.63 27.77, 286.64 37.58, 298.73 49.46 C310.82 61.35, 321.16 76.58, 328.93 91.22 C336.69 105.86, 342.28 121.33, 345.34 137.3 C348.39 153.26, 349.47 170.68, 347.26 187 C345.04 203.31, 339.23 219.91, 332.05 235.19 C324.87 250.47, 315.67 266.11, 304.17 278.67 C292.66 291.24, 277.42 302.08, 263.02 310.58 C248.63 319.09, 233.95 325.68, 217.79 329.71 C201.62 333.73, 183.27 335.62, 166.05 334.74 C148.83 333.86, 130.59 330.12, 114.48 324.44 C98.36 318.76, 82.9 310.52, 69.37 300.66 C55.83 290.8, 43.56 278.72, 33.27 265.28 C22.98 251.85, 12.93 235.55, 7.63 220.02 C2.34 204.5, 1.55 188.46, 1.5 172.14 C1.45 155.82, 2.92 138.25, 7.32 122.09 C11.73 105.93, 18.89 89.17, 27.92 75.16 C36.95 61.15, 48.17 48.49, 61.49 38.05 C74.8 27.6, 91.97 18.67, 107.8 12.51 C123.63 6.35, 139.72 2.52, 156.47 1.08 C173.21 -0.36, 199.65 2.77, 208.28 3.85 C216.9 4.94, 208.7 4.74, 208.22 7.59" stroke="#000000" stroke-width="1" fill="none"></path></g><g transform="translate(1250.3483479896786 705.0627643342405) rotate(0 76.045166015625 44.804347826086996)"><text x="76.045166015625" y="0" font-family="Virgil, Segoe UI Emoji" font-size="35.84347826086957px" fill="#000000" text-anchor="middle" style="white-space: pre;" direction="ltr" dominant-baseline="text-before-edge">php-fpm: </text><text x="76.045166015625" y="44.80434782608696" font-family="Virgil, Segoe UI Emoji" font-size="35.84347826086957px" fill="#000000" text-anchor="middle" style="white-space: pre;" direction="ltr" dominant-baseline="text-before-edge">9000</text></g><g stroke-linecap="round" transform="translate(479.32206810725984 1251.9774490747704) rotate(0 533.8384331597226 178.787841796875)"><path d="M32 0 M32 0 C337.63 0.3, 644.11 -0.47, 1035.68 0 M32 0 C298.25 -2.67, 564.79 -2.44, 1035.68 0 M1035.68 0 C1056.31 1.27, 1068.18 11.41, 1067.68 32 M1035.68 0 C1056.47 1.84, 1065.46 10.05, 1067.68 32 M1067.68 32 C1068.62 121.96, 1070.84 213.19, 1067.68 325.58 M1067.68 32 C1068 130.37, 1068.56 228.33, 1067.68 325.58 M1067.68 325.58 C1069.15 346.51, 1055.86 357.96, 1035.68 357.58 M1067.68 325.58 C1066.67 349.12, 1054.81 357.26, 1035.68 357.58 M1035.68 357.58 C638.77 356.17, 241.7 355.87, 32 357.58 M1035.68 357.58 C796.8 360.85, 557.79 360.55, 32 357.58 M32 357.58 C9.12 359.11, 0.53 348.83, 0 325.58 M32 357.58 C12.89 358.8, 0.67 345.02, 0 325.58 M0 325.58 C-1.58 225.21, -1.36 127.44, 0 32 M0 325.58 C2.62 243.75, 1.43 161.19, 0 32 M0 32 C1.57 11.35, 12.66 -0.17, 32 0 M0 32 C1.78 8.8, 10.99 -0.49, 32 0" stroke="#000000" stroke-width="1" fill="none"></path></g><g transform="translate(804.4684236302637 1408.2652908716454) rotate(0 208.69207763671875 22.5)"><text x="208.69207763671875" y="0" font-family="Virgil, Segoe UI Emoji" font-size="36px" fill="#000000" text-anchor="middle" style="white-space: pre;" direction="ltr" dominant-baseline="text-before-edge">Volumen Compartido: src</text></g><g mask="url(#mask-Uxmz2xmOPmMdouKtOiBC4)" stroke-linecap="round"><g transform="translate(716.8753474653986 950.4922259833429) rotate(0 -0.3624741506719147 136.068189675932)"><path d="M0.1 1.08 C0.12 46.16, 0.73 225.42, 0.57 270.41 M-1.31 0.6 C-1.45 45.83, -0.65 226.26, -0.18 271.54" stroke="#000000" stroke-width="1" fill="none"></path></g><g transform="translate(716.8753474653986 950.4922259833429) rotate(0 -0.3624741506719147 136.068189675932)"><path d="M-8.84 244.04 C-8.44 251.1, -3.92 261.91, 1.39 273.16 M-11.04 242.55 C-6.97 252.58, -2.79 262.19, -0.1 270.59" stroke="#000000" stroke-width="1" fill="none"></path></g><g transform="translate(716.8753474653986 950.4922259833429) rotate(0 -0.3624741506719147 136.068189675932)"><path d="M11.68 243.9 C5.19 251.03, 2.81 261.88, 1.39 273.16 M9.48 242.42 C6.7 252.6, 4.04 262.25, -0.1 270.59" stroke="#000000" stroke-width="1" fill="none"></path></g></g><mask id="mask-Uxmz2xmOPmMdouKtOiBC4"><rect x="0" y="0" fill="#fff" width="817.0749410669305" height="1321.674443432411"></rect><rect x="644.2011193027856" y="1041.083334707877" fill="#000" width="145.5480499267578" height="90" opacity="1"></rect></mask><g transform="translate(644.2011193027856 1041.083334707877) rotate(0 72.31175401194105 45.477080951397966)"><text x="72.7740249633789" y="0" font-family="Virgil, Segoe UI Emoji" font-size="36px" fill="#000000" text-anchor="middle" style="white-space: pre;" direction="ltr" dominant-baseline="text-before-edge">html/css</text><text x="72.7740249633789" y="45" font-family="Virgil, Segoe UI Emoji" font-size="36px" fill="#000000" text-anchor="middle" style="white-space: pre;" direction="ltr" dominant-baseline="text-before-edge">/js/img</text></g><g stroke-linecap="round"><g transform="translate(1336.08952491952 936.7100298303703) rotate(0 2.8263561377407314 143.41452529685466)"><path d="M-0.12 0.75 C1.15 48.57, 6.1 239.06, 7.3 286.73 M-1.65 0.1 C-0.5 47.6, 5.04 237.54, 6.34 285" stroke="#000000" stroke-width="1" fill="none"></path></g><g transform="translate(1336.08952491952 936.7100298303703) rotate(0 2.8263561377407314 143.41452529685466)"><path d="M-3.47 257.07 C-0.52 264.22, 2.55 272.86, 5.1 284.69 M-4.19 256.14 C-2.28 264.2, -0.62 269.32, 6.71 284.42" stroke="#000000" stroke-width="1" fill="none"></path></g><g transform="translate(1336.08952491952 936.7100298303703) rotate(0 2.8263561377407314 143.41452529685466)"><path d="M17.05 256.49 C14.45 263.78, 11.98 272.57, 5.1 284.69 M16.33 255.56 C13.7 263.83, 10.84 269.07, 6.71 284.42" stroke="#000000" stroke-width="1" fill="none"></path></g></g><mask></mask><g mask="url(#mask-VfTzh9711HGa0Eq5TzEHP)" stroke-linecap="round"><g transform="translate(24.776576570801808 659.0481684758124) rotate(0 269.33056267367465 1.6861904984129978)"><path d="M-0.73 -0.58 C88.99 -0.13, 449.45 2.27, 539.39 2.98 M1.09 1.72 C90.64 2.27, 449.42 3.45, 538.97 3.96" stroke="#000000" stroke-width="1" fill="none"></path></g><g transform="translate(24.776576570801808 659.0481684758124) rotate(0 269.33056267367465 1.6861904984129978)"><path d="M509.76 15.77 C519.97 11.17, 532.1 4.72, 540.96 3.8 M510.38 13.98 C519.01 11.6, 528.93 8.81, 539.71 3.96" stroke="#000000" stroke-width="1" fill="none"></path></g><g transform="translate(24.776576570801808 659.0481684758124) rotate(0 269.33056267367465 1.6861904984129978)"><path d="M509.85 -4.75 C520.07 -1.33, 532.16 0.24, 540.96 3.8 M510.47 -6.54 C518.91 -2.49, 528.81 1.15, 539.71 3.96" stroke="#000000" stroke-width="1" fill="none"></path></g></g><mask id="mask-VfTzh9711HGa0Eq5TzEHP"><rect x="0" y="0" fill="#fff" width="663.1605012669825" height="763.0885601858818"></rect><rect x="166.9964930204551" y="638.5683643308475" fill="#000" width="253.944091796875" height="45" opacity="1"></rect></mask><g transform="translate(166.9964930204551 638.5683643308475) rotate(0 127.11064622402137 22.16599464337787)"><text x="126.9720458984375" y="0" font-family="Virgil, Segoe UI Emoji" font-size="36px" fill="#000000" text-anchor="middle" style="white-space: pre;" direction="ltr" dominant-baseline="text-before-edge">Petición HTTP</text></g><g mask="url(#mask-A3BE2AmEn4fE3Y0U8nH_H)" stroke-linecap="round"><g transform="translate(549.0190624648985 839.8562739445624) rotate(0 -268.93440620354386 0.5320000636620534)"><path d="M-0.69 -0.72 C-90.48 -0.38, -448.77 0.46, -538.53 0.85 M1.15 1.52 C-88.74 2.06, -448.84 1.57, -539.02 1.77" stroke="#000000" stroke-width="1" fill="none"></path></g><g transform="translate(549.0190624648985 839.8562739445624) rotate(0 -268.93440620354386 0.5320000636620534)"><path d="M-512.03 -7.05 C-521.86 -5.1, -529.52 -2.97, -538.34 3.17 M-510.95 -8.75 C-516.59 -6.67, -523.53 -3.81, -539.06 1.59" stroke="#000000" stroke-width="1" fill="none"></path></g><g transform="translate(549.0190624648985 839.8562739445624) rotate(0 -268.93440620354386 0.5320000636620534)"><path d="M-512.02 13.47 C-521.66 8.89, -529.32 4.47, -538.34 3.17 M-510.94 11.77 C-516.38 9.45, -523.33 7.91, -539.06 1.59" stroke="#000000" stroke-width="1" fill="none"></path></g></g><mask id="mask-A3BE2AmEn4fE3Y0U8nH_H"><rect x="0" y="0" fill="#fff" width="1188.412983363336" height="941.8764697995975"></rect><rect x="126.84404415435165" y="818.36637187208" fill="#000" width="304.95611572265625" height="45" opacity="1"></rect></mask><g transform="translate(126.84404415435165 818.36637187208) rotate(0 153.24061210700302 22.02190213614449)"><text x="152.47805786132812" y="0" font-family="Virgil, Segoe UI Emoji" font-size="36px" fill="#000000" text-anchor="middle" style="white-space: pre;" direction="ltr" dominant-baseline="text-before-edge">Respuesta HTTP</text></g><g mask="url(#mask-fWmDh9V8QhQ23wxZuIYjk)" stroke-linecap="round"><g transform="translate(878.3120040881631 661.0683643308475) rotate(0 139.07843810452368 -1.3114882601635145)"><path d="M-0.35 0.59 C46.1 -0.03, 232.07 -2.74, 278.5 -3.21 M1.67 -0.15 C47.95 -0.63, 231.49 -1.09, 277.41 -1.77" stroke="#000000" stroke-width="1" fill="none"></path></g><g transform="translate(878.3120040881631 661.0683643308475) rotate(0 139.07843810452368 -1.3114882601635145)"><path d="M250.28 8.24 C257 4.89, 266.65 2.35, 279.05 -1.06 M249.37 8.96 C259.03 5.01, 266.54 1.38, 277.44 -1.73" stroke="#000000" stroke-width="1" fill="none"></path></g><g transform="translate(878.3120040881631 661.0683643308475) rotate(0 139.07843810452368 -1.3114882601635145)"><path d="M250.12 -12.28 C256.98 -9.75, 266.67 -6.42, 279.05 -1.06 M249.21 -11.56 C258.99 -9.08, 266.56 -6.28, 277.44 -1.73" stroke="#000000" stroke-width="1" fill="none"></path></g></g><mask id="mask-fWmDh9V8QhQ23wxZuIYjk"><rect x="0" y="0" fill="#fff" width="1257.0997102513575" height="764.0986242049803"></rect><rect x="983.9918450237637" y="637.0532343937812" fill="#000" width="67.42802429199219" height="45" opacity="1"></rect></mask><g transform="translate(983.9918450237637 637.0532343937812) rotate(0 33.39859716892306 22.703641676902862)"><text x="33.714012145996094" y="0" font-family="Virgil, Segoe UI Emoji" font-size="36px" fill="#000000" text-anchor="middle" style="white-space: pre;" direction="ltr" dominant-baseline="text-before-edge">PHP</text></g><g transform="translate(882.3522601645518 522.6845413599267) rotate(0 125.83802795410156 22.5)"><text x="0" y="0" font-family="Virgil, Segoe UI Emoji" font-size="36px" fill="#000000" text-anchor="start" style="white-space: pre;" direction="ltr" dominant-baseline="text-before-edge">Reverse Proxy</text></g><g mask="url(#mask-05If3EDW3hpVl0XUXz4lg)" stroke-linecap="round"><g transform="translate(1142.958407082955 806.5229406112294) rotate(0 -121.95877535680893 0.16263445641379803)"><path d="M0.97 -0.65 C-39.5 -1.03, -202.88 -1.1, -243.77 -1.3 M0.02 1.62 C-40.56 1.34, -204.56 0.52, -244.89 0.09" stroke="#000000" stroke-width="1" fill="none"></path></g><g transform="translate(1142.958407082955 806.5229406112294) rotate(0 -121.95877535680893 0.16263445641379803)"><path d="M-217.71 -10.52 C-223.33 -9.05, -230.58 -4.5, -243.25 0.22 M-216.97 -10.94 C-225.56 -6.28, -236.05 -2.18, -244.6 -0.73" stroke="#000000" stroke-width="1" fill="none"></path></g><g transform="translate(1142.958407082955 806.5229406112294) rotate(0 -121.95877535680893 0.16263445641379803)"><path d="M-217.86 10 C-223.62 6.89, -230.83 6.87, -243.25 0.22 M-217.13 9.58 C-225.86 7.42, -236.31 4.69, -244.6 -0.73" stroke="#000000" stroke-width="1" fill="none"></path></g></g><mask id="mask-05If3EDW3hpVl0XUXz4lg"><rect x="0" y="0" fill="#fff" width="1486.3927875083027" height="907.5330724471669"></rect><rect x="972.281194897625" y="783.5178746932606" fill="#000" width="97.9200439453125" height="45" opacity="1"></rect></mask><g transform="translate(972.281194897625 783.5178746932606) rotate(0 48.718436828521135 23.167700374382548)"><text x="48.96002197265625" y="0" font-family="Virgil, Segoe UI Emoji" font-size="36px" fill="#000000" text-anchor="middle" style="white-space: pre;" direction="ltr" dominant-baseline="text-before-edge">HTML</text></g><g stroke-linecap="round" transform="translate(1157.221021015248 10) rotate(0 173.9192165798613 167.2300159421743)"><path d="M186.37 0.94 C202.89 -0.69, 221.59 4.85, 237.63 10.89 C253.67 16.93, 269.34 26.77, 282.59 37.19 C295.84 47.6, 307.71 59.95, 317.16 73.38 C326.6 86.81, 334.27 102.05, 339.28 117.79 C344.29 133.53, 347.14 151.41, 347.22 167.82 C347.3 184.23, 344.6 200.62, 339.76 216.28 C334.93 231.94, 327.78 248.31, 318.22 261.79 C308.67 275.27, 295.71 287.17, 282.43 297.18 C269.15 307.19, 254.49 315.7, 238.55 321.83 C222.6 327.95, 204.02 332.45, 186.76 333.95 C169.5 335.45, 151.7 334.34, 134.96 330.82 C118.23 327.3, 101.01 321.05, 86.34 312.82 C71.67 304.59, 58.45 293.72, 46.95 281.44 C35.46 269.16, 24.81 253.86, 17.37 239.13 C9.94 224.4, 4.82 209.12, 2.35 193.06 C-0.11 177, 0.22 158.98, 2.6 142.77 C4.98 126.56, 9.27 110.72, 16.64 95.82 C24.02 80.92, 35.04 65.71, 46.85 53.39 C58.66 41.07, 72.81 30.02, 87.53 21.9 C102.25 13.79, 115.71 8.03, 135.17 4.69 C154.63 1.35, 190.25 1.01, 204.29 1.85 C218.33 2.7, 219.85 7.04, 219.4 9.75 M122.98 8.55 C138 1.73, 158.69 1.66, 175.84 1.44 C192.99 1.21, 209.66 2.54, 225.88 7.18 C242.11 11.82, 259.34 20.02, 273.17 29.28 C286.99 38.54, 298.28 49.91, 308.86 62.74 C319.44 75.58, 330.45 90.64, 336.64 106.28 C342.82 121.91, 345.02 140, 345.96 156.54 C346.91 173.08, 346.09 189.97, 342.3 205.51 C338.51 221.06, 331.37 235.55, 323.2 249.84 C315.03 264.13, 305.64 279.74, 293.28 291.25 C280.92 302.77, 264.64 311.84, 249.04 318.93 C233.44 326.02, 216.39 331.32, 199.65 333.79 C182.91 336.26, 165.33 336.59, 148.6 333.75 C131.87 330.91, 114.94 324.08, 99.27 316.78 C83.6 309.48, 67.36 300.87, 54.57 289.96 C41.78 279.05, 30.97 265.54, 22.54 251.33 C14.1 237.12, 7.52 221.03, 3.97 204.68 C0.41 188.33, -0.13 169.8, 1.21 153.24 C2.54 136.68, 5.78 120.54, 11.97 105.3 C18.15 90.07, 27.35 74.71, 38.32 61.86 C49.29 49, 63.58 37.23, 77.77 28.17 C91.96 19.1, 115.89 10.3, 123.47 7.47 C131.05 4.64, 122.52 8.77, 123.27 11.19" stroke="#000000" stroke-width="1" fill="none"></path></g><g transform="translate(1260.6689588837753 132.17618982544172) rotate(0 70.4918212890625 44.804347826086996)"><text x="70.4918212890625" y="0" font-family="Virgil, Segoe UI Emoji" font-size="35.84347826086957px" fill="#000000" text-anchor="middle" style="white-space: pre;" direction="ltr" dominant-baseline="text-before-edge">mariadb:</text><text x="70.4918212890625" y="44.80434782608696" font-family="Virgil, Segoe UI Emoji" font-size="35.84347826086957px" fill="#000000" text-anchor="middle" style="white-space: pre;" direction="ltr" dominant-baseline="text-before-edge">3306</text></g><g mask="url(#mask-JAnxTRG_fCWH1LerISLZ0)" stroke-linecap="round"><g transform="translate(1325.8713165957815 560.9906515540997) rotate(0 -2.4823643199956678 -98.75357053992775)"><path d="M0.74 -0.53 C-0.2 -33.82, -4.87 -166.36, -5.71 -199.31 M-0.32 1.8 C-0.87 -31.34, -2.66 -164.22, -3.38 -197.88" stroke="#000000" stroke-width="1" fill="none"></path></g><g transform="translate(1325.8713165957815 560.9906515540997) rotate(0 -2.4823643199956678 -98.75357053992775)"><path d="M6.47 -171.08 C3.74 -176.9, 2.33 -185.67, -1.55 -196.63 M6.85 -169.48 C3.07 -178.47, -0.55 -188.76, -2.98 -198.49" stroke="#000000" stroke-width="1" fill="none"></path></g><g transform="translate(1325.8713165957815 560.9906515540997) rotate(0 -2.4823643199956678 -98.75357053992775)"><path d="M-14.05 -170.73 C-10.71 -176.78, -6.05 -185.65, -1.55 -196.63 M-13.66 -169.14 C-10.59 -178.25, -7.37 -188.66, -2.98 -198.49" stroke="#000000" stroke-width="1" fill="none"></path></g></g><mask id="mask-JAnxTRG_fCWH1LerISLZ0"><rect x="0" y="0" fill="#fff" width="1430.8515423957306" height="860.0953512615961"></rect><rect x="1288.965188070807" y="438.9383017003511" fill="#000" width="68.83203125" height="45" opacity="1"></rect></mask><g transform="translate(1288.965188070807 438.9383017003511) rotate(0 34.42376420497885 23.298779313820887)"><text x="34.416015625" y="0" font-family="Virgil, Segoe UI Emoji" font-size="36px" fill="#000000" text-anchor="middle" style="white-space: pre;" direction="ltr" dominant-baseline="text-before-edge">SQL</text></g><g stroke-linecap="round" transform="translate(544.2918760499679 19.595947265625) rotate(0 173.9192165798613 167.2300159421743)"><path d="M180.4 0.41 C196.63 -1.85, 214.9 3.35, 230.99 8.63 C247.07 13.91, 263.33 22.17, 276.93 32.09 C290.53 42.02, 302.59 54.79, 312.6 68.16 C322.61 81.52, 331.08 96.92, 336.98 112.28 C342.88 127.64, 347.04 143.89, 347.98 160.32 C348.92 176.76, 347.1 195, 342.61 210.91 C338.12 226.82, 330.05 241.9, 321.06 255.79 C312.07 269.67, 301.55 283.62, 288.67 294.22 C275.78 304.82, 259.63 312.98, 243.74 319.37 C227.85 325.76, 210.14 330.55, 193.31 332.58 C176.48 334.62, 159.4 334.59, 142.76 331.6 C126.11 328.62, 108.52 322.18, 93.45 314.66 C78.37 307.14, 64.3 297.91, 52.3 286.49 C40.29 275.08, 29.5 260.77, 21.41 246.17 C13.31 231.57, 7.15 214.98, 3.71 198.9 C0.27 182.82, -1.05 166.02, 0.76 149.7 C2.56 133.39, 7.75 116.25, 14.55 101.03 C21.34 85.8, 30.51 70.89, 41.53 58.37 C52.56 45.84, 66.33 34.6, 80.72 25.88 C95.12 17.16, 109.78 10.36, 127.89 6.05 C146 1.74, 177.61 0.29, 189.38 0.01 C201.15 -0.28, 198.63 1.59, 198.49 4.35 M178.17 0.76 C194.69 -1.74, 214.13 3.11, 230.3 8.18 C246.46 13.25, 261.34 21.36, 275.18 31.19 C289.03 41.01, 303.23 54.15, 313.36 67.11 C323.49 80.07, 330.02 93.35, 335.96 108.92 C341.89 124.49, 347.72 143.66, 348.97 160.52 C350.22 177.38, 347.84 194.43, 343.46 210.08 C339.08 225.72, 331.59 240.52, 322.66 254.4 C313.74 268.28, 302.77 282.23, 289.9 293.37 C277.04 304.51, 261.23 314.64, 245.48 321.26 C229.72 327.87, 212.12 331.48, 195.35 333.05 C178.58 334.61, 161.53 333.32, 144.85 330.65 C128.16 327.98, 110.65 324.27, 95.23 317.01 C79.81 309.75, 64.84 298.97, 52.31 287.08 C39.78 275.2, 28.23 260, 20.05 245.72 C11.87 231.45, 6.37 217.21, 3.23 201.43 C0.09 185.66, -0.55 167.4, 1.21 151.08 C2.96 134.76, 7.12 119, 13.77 103.5 C20.43 88.01, 29.92 71.12, 41.13 58.13 C52.34 45.14, 66.89 34.21, 81.01 25.58 C95.13 16.95, 109.66 10.69, 125.85 6.36 C142.05 2.02, 169.35 0.06, 178.16 -0.44 C186.97 -0.94, 178.9 0.28, 178.71 3.36" stroke="#000000" stroke-width="1" fill="none"></path></g><g transform="translate(621.8719168848038 141.77213709106672) rotate(0 96.3597183227539 44.804347826086996)"><text x="96.3597183227539" y="0" font-family="Virgil, Segoe UI Emoji" font-size="35.84347826086957px" fill="#000000" text-anchor="middle" style="white-space: pre;" direction="ltr" dominant-baseline="text-before-edge">phpmyadmin:</text><text x="96.3597183227539" y="44.80434782608696" font-family="Virgil, Segoe UI Emoji" font-size="35.84347826086957px" fill="#000000" text-anchor="middle" style="white-space: pre;" direction="ltr" dominant-baseline="text-before-edge">8080</text></g><g mask="url(#mask-Hw8wQELVuotRE0FR3-dZ5)" stroke-linecap="round"><g transform="translate(909.7722193507125 184.61277590914142) rotate(0 114.72044998989395 -0.0898628875461327)"><path d="M0.31 0.71 C38.8 0.8, 192.09 0.83, 230.43 0.85 M-0.99 0.04 C37.44 -0.27, 191.32 -0.81, 229.79 -1.03" stroke="#000000" stroke-width="1" fill="none"></path></g><g transform="translate(909.7722193507125 184.61277590914142) rotate(0 114.72044998989395 -0.0898628875461327)"><path d="M202.82 10.33 C209.65 7.4, 216.9 3.8, 230.69 0.71 M202.61 9.44 C209.92 5.71, 217.85 3.51, 230.39 -0.04" stroke="#000000" stroke-width="1" fill="none"></path></g><g transform="translate(909.7722193507125 184.61277590914142) rotate(0 114.72044998989395 -0.0898628875461327)"><path d="M202.73 -10.19 C209.64 -7.81, 216.92 -6.11, 230.69 0.71 M202.51 -11.08 C210.01 -9.23, 217.96 -5.85, 230.39 -0.04" stroke="#000000" stroke-width="1" fill="none"></path></g></g><mask id="mask-Hw8wQELVuotRE0FR3-dZ5"><rect x="0" y="0" fill="#fff" width="1239.6138962321093" height="285.00205318008193"></rect><rect x="959.821033255278" y="117.30741454461167" fill="#000" width="129.74404907226562" height="135" opacity="1"></rect></mask><g transform="translate(959.821033255278 117.30741454461167) rotate(0 64.67163608532837 67.21549847698361)"><text x="64.87202453613281" y="0" font-family="Virgil, Segoe UI Emoji" font-size="36px" fill="#000000" text-anchor="middle" style="white-space: pre;" direction="ltr" dominant-baseline="text-before-edge">php</text><text x="64.87202453613281" y="45" font-family="Virgil, Segoe UI Emoji" font-size="36px" fill="#000000" text-anchor="middle" style="white-space: pre;" direction="ltr" dominant-baseline="text-before-edge">mysql</text><text x="64.87202453613281" y="90" font-family="Virgil, Segoe UI Emoji" font-size="36px" fill="#000000" text-anchor="middle" style="white-space: pre;" direction="ltr" dominant-baseline="text-before-edge">connect</text></g><g mask="url(#mask-zlIYoX_7IFdxB5r9bp0k4)" stroke-linecap="round"><g transform="translate(43.968606735732465 63.08859409430261) rotate(0 257.33655274247167 2.66262698080709)"><path d="M-0.07 -0.13 C85.94 0.91, 430.1 4.44, 516.24 5.39 M-1.57 -1.24 C84.28 0.02, 429.01 5.27, 515.34 6.57" stroke="#000000" stroke-width="1" fill="none"></path></g><g transform="translate(43.968606735732465 63.08859409430261) rotate(0 257.33655274247167 2.66262698080709)"><path d="M486.78 16.54 C494.8 14.42, 503.91 11.39, 514.73 7.64 M486.89 16.25 C492.99 14.83, 498.52 12.08, 516.21 6.71" stroke="#000000" stroke-width="1" fill="none"></path></g><g transform="translate(43.968606735732465 63.08859409430261) rotate(0 257.33655274247167 2.66262698080709)"><path d="M487.09 -3.98 C494.87 0.31, 503.88 3.7, 514.73 7.64 M487.2 -4.26 C493.24 -1.35, 498.71 0.23, 516.21 6.71" stroke="#000000" stroke-width="1" fill="none"></path></g></g><mask id="mask-zlIYoX_7IFdxB5r9bp0k4"><rect x="0" y="0" fill="#fff" width="660.1301735760098" height="169.14918165940708"></rect><rect x="175.07734425743365" y="43.6188878768553" fill="#000" width="253.944091796875" height="45" opacity="1"></rect></mask><g transform="translate(175.07734425743365 43.6188878768553) rotate(0 126.22781522077048 22.1323331982544)"><text x="126.9720458984375" y="0" font-family="Virgil, Segoe UI Emoji" font-size="36px" fill="#000000" text-anchor="middle" style="white-space: pre;" direction="ltr" dominant-baseline="text-before-edge">Petición HTTP</text></g><g mask="url(#mask-2vmbdq-7y7QTUzVPPlTiZ)" stroke-linecap="round"><g transform="translate(558.1099099041348 290.36130595411123) rotate(0 -253.55247638422452 0.30217200494780627)"><path d="M-0.89 1.11 C-85.36 1.17, -422.9 1.12, -507.38 1.04 M0.85 0.65 C-83.67 0.33, -423.09 -0.19, -507.95 -0.53" stroke="#000000" stroke-width="1" fill="none"></path></g><g transform="translate(558.1099099041348 290.36130595411123) rotate(0 -253.55247638422452 0.30217200494780627)"><path d="M-477.88 -9.55 C-485.09 -7.82, -492.93 -4.03, -509.62 1 M-480.67 -11.12 C-486.82 -7.57, -492.04 -4.98, -507.93 0.32" stroke="#000000" stroke-width="1" fill="none"></path></g><g transform="translate(558.1099099041348 290.36130595411123) rotate(0 -253.55247638422452 0.30217200494780627)"><path d="M-477.93 10.98 C-485.25 7.51, -493.08 6.09, -509.62 1 M-480.72 9.4 C-486.9 8.3, -492.1 6.25, -507.93 0.32" stroke="#000000" stroke-width="1" fill="none"></path></g></g><mask id="mask-2vmbdq-7y7QTUzVPPlTiZ"><rect x="0" y="0" fill="#fff" width="1166.1906933242735" height="390.36130595411123"></rect><rect x="151.59146033273737" y="267.86130595411123" fill="#000" width="304.95611572265625" height="45" opacity="1"></rect></mask><g transform="translate(151.59146033273737 267.86130595411123) rotate(0 152.96597318717295 22.802172004947806)"><text x="152.47805786132812" y="0" font-family="Virgil, Segoe UI Emoji" font-size="36px" fill="#000000" text-anchor="middle" style="white-space: pre;" direction="ltr" dominant-baseline="text-before-edge">Respuesta HTTP</text></g></svg>